<svg height="480pt" viewBox="0 0 480 480" width="480pt" xmlns="http://www.w3.org/2000/svg" xmlns:xlink="http://www.w3.org/1999/xlink"><linearGradient id="a"><stop offset="0" stop-color="#12c2e9"/><stop offset=".5" stop-color="#c471ed"/><stop offset="1" stop-color="#f64f59"/></linearGradient><linearGradient id="b" gradientUnits="userSpaceOnUse" x1="240" x2="240" xlink:href="#a" y1="502.536" y2="-21.352"/><linearGradient id="c" gradientUnits="userSpaceOnUse" x1="72" x2="72" xlink:href="#a" y1="503.488" y2="-20.392"/><linearGradient id="d" gradientUnits="userSpaceOnUse" x1="192" x2="192" xlink:href="#a" y1="505.248" y2="-18.584"/><linearGradient id="e" gradientUnits="userSpaceOnUse" x1="456" x2="456" xlink:href="#a" y1="509.216" y2="-14.664"/><linearGradient id="f" gradientUnits="userSpaceOnUse" x1="384" x2="384" xlink:href="#a" y1="508.128" y2="-15.712"/><linearGradient id="g" gradientUnits="userSpaceOnUse" x1="432" x2="432" xlink:href="#a" y1="508.816" y2="-15.024"/><linearGradient id="h" gradientUnits="userSpaceOnUse" x1="312" x2="312" xlink:href="#a" y1="507.064" y2="-16.808"/><linearGradient id="i" gradientUnits="userSpaceOnUse" x1="248" x2="248" xlink:href="#a" y1="506.112" y2="-17.76"/><linearGradient id="j" gradientUnits="userSpaceOnUse" x1="112" x2="112" xlink:href="#a" y1="504.08" y2="-19.76"/><path d="m472 464h-456v-456c0-4.417969-3.582031-8-8-8s-8 3.582031-8 8v464c0 4.417969 3.582031 8 8 8h464c4.417969 0 8-3.582031 8-8s-3.582031-8-8-8zm0 0" fill="url(#b)"/><path d="m72 288c4.417969 0 8-3.582031 8-8v-8h8c4.417969 0 8-3.582031 8-8s-3.582031-8-8-8h-8v-8c0-4.417969-3.582031-8-8-8s-8 3.582031-8 8v8h-8c-4.417969 0-8 3.582031-8 8s3.582031 8 8 8h8v8c0 4.417969 3.582031 8 8 8zm0 0" fill="url(#c)"/><path d="m192 160c-17.671875 0-32 14.328125-32 32s14.328125 32 32 32 32-14.328125 32-32-14.328125-32-32-32zm0 48c-8.835938 0-16-7.164062-16-16s7.164062-16 16-16 16 7.164062 16 16-7.164062 16-16 16zm0 0" fill="url(#d)"/><path d="m472 144h-8v-8c0-4.417969-3.582031-8-8-8s-8 3.582031-8 8v8h-8c-4.417969 0-8 3.582031-8 8s3.582031 8 8 8h8v8c0 4.417969 3.582031 8 8 8s8-3.582031 8-8v-8h8c4.417969 0 8-3.582031 8-8s-3.582031-8-8-8zm0 0" fill="url(#e)"/><path d="m384 248c-17.671875 0-32 14.328125-32 32s14.328125 32 32 32 32-14.328125 32-32-14.328125-32-32-32zm0 48c-8.835938 0-16-7.164062-16-16s7.164062-16 16-16 16 7.164062 16 16-7.164062 16-16 16zm0 0" fill="url(#f)"/><path d="m464 32c0-17.671875-14.328125-32-32-32s-32 14.328125-32 32 14.328125 32 32 32 32-14.328125 32-32zm-48 0c0-8.835938 7.164062-16 16-16s16 7.164062 16 16-7.164062 16-16 16-16-7.164062-16-16zm0 0" fill="url(#g)"/><path d="m312 208c4.417969 0 8-3.582031 8-8v-8h8c4.417969 0 8-3.582031 8-8s-3.582031-8-8-8h-8v-8c0-4.417969-3.582031-8-8-8s-8 3.582031-8 8v8h-8c-4.417969 0-8 3.582031-8 8s3.582031 8 8 8h8v8c0 4.417969 3.582031 8 8 8zm0 0" fill="url(#h)"/><path d="m248 336c4.417969 0 8-3.582031 8-8v-8h8c4.417969 0 8-3.582031 8-8s-3.582031-8-8-8h-8v-8c0-4.417969-3.582031-8-8-8s-8 3.582031-8 8v8h-8c-4.417969 0-8 3.582031-8 8s3.582031 8 8 8h8v8c0 4.417969 3.582031 8 8 8zm0 0" fill="url(#i)"/><path d="m112 400c17.671875 0 32-14.328125 32-32s-14.328125-32-32-32-32 14.328125-32 32 14.328125 32 32 32zm0-48c8.835938 0 16 7.164062 16 16s-7.164062 16-16 16-16-7.164062-16-16 7.164062-16 16-16zm0 0" fill="url(#j)"/></svg>