<svg height="480pt" viewBox="0 0 480 480" width="480pt" xmlns="http://www.w3.org/2000/svg" xmlns:xlink="http://www.w3.org/1999/xlink"><linearGradient id="a"><stop offset="0" stop-color="#12c2e9"/><stop offset=".5" stop-color="#c471ed"/><stop offset="1" stop-color="#f64f59"/></linearGradient><linearGradient id="b" gradientUnits="userSpaceOnUse" x1="240" x2="240" xlink:href="#a" y1="483.624" y2="-9.656"/><linearGradient id="c" gradientUnits="userSpaceOnUse" x1="224" x2="224" xlink:href="#a" y1="481.656" y2="-15.128"/><linearGradient id="d" gradientUnits="userSpaceOnUse" x1="264" x2="264" xlink:href="#a" y1="486.328" y2="-1.784"/><linearGradient id="e" gradientUnits="userSpaceOnUse" x1="304" x2="304" xlink:href="#a" y1="490.448" y2="10.712"/><linearGradient id="f" gradientUnits="userSpaceOnUse" x1="104" x2="104" xlink:href="#a" y1="500.552" y2="-16.456"/><linearGradient id="g" gradientUnits="userSpaceOnUse" x1="40" x2="40" xlink:href="#a" y1="501.72" y2="-15.2"/><linearGradient id="h" gradientUnits="userSpaceOnUse" x1="40" x2="40" xlink:href="#a" y1="501.696" y2="-15.216"/><linearGradient id="i" gradientUnits="userSpaceOnUse" x1="40" x2="40" xlink:href="#a" y1="501.68" y2="-15.24"/><linearGradient id="j" gradientUnits="userSpaceOnUse" x1="40" x2="40" xlink:href="#a" y1="501.656" y2="-15.256"/><path d="m128 216c0 4.417969 3.582031 8 8 8h208c4.417969 0 8-3.582031 8-8v-64c0-4.417969-3.582031-8-8-8h-208c-4.417969 0-8 3.582031-8 8zm16-56h192v48h-192zm0 0" fill="url(#b)"/><path d="m136 112h176c4.417969 0 8-3.582031 8-8v-64c0-4.417969-3.582031-8-8-8h-176c-4.417969 0-8 3.582031-8 8v64c0 4.417969 3.582031 8 8 8zm8-64h160v48h-160zm0 0" fill="url(#c)"/><path d="m128 328c0 4.417969 3.582031 8 8 8h256c4.417969 0 8-3.582031 8-8v-64c0-4.417969-3.582031-8-8-8h-256c-4.417969 0-8 3.582031-8 8zm16-56h240v48h-240zm0 0" fill="url(#d)"/><path d="m472 368h-336c-4.417969 0-8 3.582031-8 8v64c0 4.417969 3.582031 8 8 8h336c4.417969 0 8-3.582031 8-8v-64c0-4.417969-3.582031-8-8-8zm-8 64h-320v-48h320zm0 0" fill="url(#e)"/><path d="m104 0c-4.417969 0-8 3.582031-8 8v464c0 4.417969 3.582031 8 8 8s8-3.582031 8-8v-464c0-4.417969-3.582031-8-8-8zm0 0" fill="url(#f)"/><path d="m40 368c-22.089844 0-40 17.910156-40 40s17.910156 40 40 40 40-17.910156 40-40c-.027344-22.082031-17.917969-39.972656-40-40zm0 64c-13.253906 0-24-10.746094-24-24s10.746094-24 24-24 24 10.746094 24 24-10.746094 24-24 24zm0 0" fill="url(#g)"/><path d="m40 256c-22.089844 0-40 17.910156-40 40s17.910156 40 40 40 40-17.910156 40-40c-.027344-22.082031-17.917969-39.972656-40-40zm0 64c-13.253906 0-24-10.746094-24-24s10.746094-24 24-24 24 10.746094 24 24-10.746094 24-24 24zm0 0" fill="url(#h)"/><path d="m40 144c-22.089844 0-40 17.910156-40 40s17.910156 40 40 40 40-17.910156 40-40c-.027344-22.082031-17.917969-39.972656-40-40zm0 64c-13.253906 0-24-10.746094-24-24s10.746094-24 24-24 24 10.746094 24 24-10.746094 24-24 24zm0 0" fill="url(#i)"/><path d="m40 32c-22.089844 0-40 17.910156-40 40s17.910156 40 40 40 40-17.910156 40-40c-.027344-22.082031-17.917969-39.972656-40-40zm0 64c-13.253906 0-24-10.746094-24-24s10.746094-24 24-24 24 10.746094 24 24-10.746094 24-24 24zm0 0" fill="url(#j)"/></svg>