<svg xmlns="http://www.w3.org/2000/svg" width="164" height="41" viewBox="0 0 164 41">
    <g fill="none" fill-rule="evenodd">
        <path fill="#ffffff" d="M49.755 15.798v13.986s.513.216 1.701.216c1.107 0 1.701-.216 1.701-.216V18.579h5.211s.27-.567.27-1.377-.27-1.404-.27-1.404h-8.613zm14.472 1.134c.756-.918 1.917-1.404 3.645-1.404 3.024 0 4.995 1.863 4.995 7.371 0 5.508-1.971 7.371-4.995 7.371-1.728 0-2.889-.486-3.645-1.404v6.966s-.594.216-1.728.216-1.674-.216-1.674-.216V16.014s.54-.216 1.674-.216 1.728.216 1.728.216v.918zm5.13 5.967c0-3.807-.999-4.617-2.7-4.617-1.512 0-2.43 1.215-2.43 2.916V24.6c0 1.701.918 2.916 2.43 2.916 1.701 0 2.7-.81 2.7-4.617zm6.777-6.291s1.998-1.08 4.86-1.08c3.942 0 5.4 1.62 5.4 5.022v9.234s-.378.216-1.323.216c-.837 0-1.377-.216-1.377-.216l-.513-1.458c-.621 1.269-1.998 1.944-3.942 1.944-2.565 0-4.185-1.512-4.185-4.671 0-3.051 1.917-4.293 5.265-4.293.945 0 1.89.054 2.673.135v-.702c0-1.404-.432-2.349-2.43-2.349-1.782 0-3.456.648-3.456.648s-.432-.27-.756-.999-.216-1.431-.216-1.431zm6.858 7.074a28.35 28.35 0 0 0-2.241-.108c-1.377 0-2.187.567-2.187 2.025 0 1.539.729 2.079 1.944 2.079 1.89 0 2.484-1.755 2.484-3.186v-.81zm13.446-7.884c2.403 0 3.915 1.539 3.915 3.834 0 1.35-.486 2.43-1.458 3.051 1.269.621 1.998 1.701 1.998 3.24 0 2.457-1.62 4.077-4.401 4.077H89.85V15.798h6.588zm-3.213 5.886h2.295c1.026 0 1.539-.756 1.539-1.755 0-.972-.513-1.728-1.539-1.728h-2.295v3.483zm0 5.913h2.376c1.215 0 1.836-.648 1.836-1.755 0-1.134-.513-1.836-1.836-1.836h-2.376v3.591zm19.17-11.583l-3.996 6.696c-.729 1.242-1.296 2.673-1.296 2.673h-.081c.081-.027.162-3.24.162-5.913v-3.456s-.648-.216-1.755-.216c-.999 0-1.647.216-1.647.216v13.77s.648.216 1.674.216c1.08 0 1.728-.216 1.728-.216l2.673-4.455c1.242-2.106 2.808-4.833 2.619-4.887h.081c-.081.081-.162 2.376-.162 5.913v3.429s.702.216 1.755.216c.999 0 1.647-.216 1.647-.216v-13.77s-.702-.216-1.701-.216c-1.053 0-1.701.216-1.701.216zm5.886-.216s-.297.567-.297 1.431c0 .837.297 1.404.297 1.404h3.861v11.151s.513.216 1.701.216c1.107 0 1.701-.216 1.701-.216V18.633h3.861s.27-.567.27-1.404c0-.864-.27-1.431-.27-1.431h-11.124zm24.219 8.154h-7.911c.243 2.754 1.458 3.456 3.348 3.456 1.809 0 3.159-.648 3.159-.648.567.54.891 1.485.945 2.403 0 0-1.593 1.107-4.59 1.107-4.401 0-6.345-2.565-6.345-7.452 0-5.103 2.43-7.29 6.156-7.29 3.348 0 5.535 1.728 5.535 5.589 0 1.728-.297 2.835-.297 2.835zm-3.078-3.24c0-1.404-.459-2.538-2.16-2.538-1.377 0-2.403.918-2.646 3.429h4.752a9.86 9.86 0 0 0 .054-.891zm11.016 1.458l.324-3.807h2.889v11.421s.675.216 1.728.216c.891 0 1.647-.216 1.647-.216V15.798h-9.234l-.486 6.264c-.324 4.185-1.134 5.373-1.863 5.535-.513.108-1.026.027-1.026.027s-.216.54-.216 1.188c0 .675.216 1.134.216 1.134s.621.216 1.377.216c2.268 0 4.077-1.269 4.644-7.992z"/>
        <path fill="#ffffff" fill-rule="nonzero" d="M14.257 19.877c-6.135 2.56-9.794 5.487-9.142 7.921.469 1.748 2.906 2.575 6.686 2.626 3.552.048 8.132-.61 12.861-1.878 4.73-1.267 9.026-2.987 12.078-4.804 3.248-1.934 4.945-3.869 4.477-5.617-.662-2.472-5.44-3.163-12.192-2.248l.188 1.389c3.044-.413 5.708-.478 7.654-.197 1.813.262 2.83.8 2.996 1.419.239.89-1.104 2.42-3.84 4.05-2.933 1.746-7.111 3.418-11.723 4.654-4.612 1.236-9.067 1.877-12.48 1.83-3.185-.042-5.112-.696-5.351-1.586-.162-.606.423-1.558 1.81-2.667 1.49-1.193 3.755-2.446 6.517-3.599l-.54-1.293zM14.19 5.94c-1.44.386-1.773 2.447-1.402 6.23.443 4.36.75 6.631 1.174 8.485a.7.7 0 0 0 1.366-.313c-.407-1.78-.708-4.01-1.145-8.31-.162-1.648-.171-2.903-.035-3.746.061-.378.149-.657.252-.832.064-.11.111-.149.152-.16.046-.012.119 0 .243.067.19.101.422.3.685.595.58.655 1.26 1.732 2.026 3.222a.7.7 0 0 0 .804.357l4.082-1.094a3.504 3.504 0 0 1 4.067 1.87c1.258 2.626 2.03 4.393 2.308 5.268.235.743.355 1.146.466 1.596a.7.7 0 0 0 1.36-.338c-.12-.486-.246-.911-.49-1.68-.304-.96-1.094-2.766-2.38-5.451a4.906 4.906 0 0 0-5.694-2.619l-3.54.949c-1.625-3.052-2.954-4.456-4.3-4.096zm16.198 20.261c.002.022.181 1.158.241 1.64.045.355.073.659.083.9a3.154 3.154 0 0 1-2.335 3.176l-5.162 1.384a3.154 3.154 0 0 1-3.589-1.543c-.12-.22-.252-.5-.397-.83-.208-.474-.657-1.608-.661-1.618a.7.7 0 1 0-1.272.59 57.41 57.41 0 0 0 .65 1.591c.158.362.307.675.448.935a4.555 4.555 0 0 0 5.183 2.228l5.163-1.383a4.555 4.555 0 0 0 3.372-4.587 12.608 12.608 0 0 0-.092-1.016c-.065-.521-.24-1.631-.237-1.603a.7.7 0 0 0-1.395.136zM18.43 14.841c-.65.174-1.055.82-.93 1.48l.841 4.415a1.284 1.284 0 0 0 1.526 1.017 50.2 50.2 0 0 0 2.679-.64 45.123 45.123 0 0 0 2.353-.697 1.285 1.285 0 0 0 .766-1.648l-1.547-4.239a1.285 1.285 0 0 0-1.54-.8l-4.148 1.112zm-.363-1.354l4.149-1.112a2.686 2.686 0 0 1 3.218 1.674l1.548 4.238a2.686 2.686 0 0 1-1.69 3.476c-.762.248-1.556.483-2.384.705-.91.244-1.828.463-2.753.657a2.686 2.686 0 0 1-3.19-2.127l-.841-4.414a2.686 2.686 0 0 1 1.943-3.097z"/>
    </g>
</svg>
