<svg version="1" xmlns="http://www.w3.org/2000/svg" width="3308" height="3308" viewBox="0 0 2481.000000 2481.000000"><path d="M259.7 175.6c-.1.1-4.5.5-9.7.9-10.3.7-12 .9-25.5 3.1-41.5 6.9-82.2 24.6-117 50.8-4.4 3.3-8.5 6.5-9.1 7.1-.6.5-4 3.5-7.5 6.5-6.8 6-20.2 19.6-26.8 27.3C29.3 312 6.9 364.5 1.2 418.5c-.9 9.2-.9 1636.2 0 1644 .5 3.3 1 7.1 1.2 8.5.2 1.4.8 4.7 1.2 7.5.4 2.7.9 5.7 1 6.5.2.8.6 3 .9 4.7.3 1.8.6 3.5.6 3.8 0 .2.5 1.9 1 3.7.6 1.8 1.2 4 1.4 4.9.7 3.4 2.8 10.5 3.5 12.4.4 1.1 2.3 6.3 4 11.5 4.8 13.9 15.3 36.2 21.7 46.3 1.5 2.3 3.4 5.4 4.3 6.9 8.5 15.3 36 46.8 53.5 61.4 25.5 21.3 52.6 37 83.5 48.4 4.7 1.7 9.2 3.3 10.1 3.5.9.2 4.7 1.2 8.5 2.3 3.8 1.1 8.5 2.4 10.4 2.8 1.9.4 3.7.8 4 .9.3.1 2.5.5 5 1s4.7.9 5 1c.3.1 2.8.5 5.5 1 2.8.4 5.8.9 6.8 1.1 1 .2 5.3.7 9.5 1.1 10.4 1.1 1986 1 1994.2-.1 3.6-.4 7.2-.9 8-1.1.8-.1 4-.6 7-1.1 3-.4 5.7-.8 6-.9.3-.1 2.1-.5 4-.9 44-9.4 79.4-25.8 114.9-53.3 8.6-6.7 33.1-30.6 40.6-39.6 4-4.9 18-24.5 22.4-31.4 4.6-7.3 13-23.9 17.9-35.3 4.6-10.6 11.6-31 12.6-36.3.3-1.2.5-2.3.7-2.5.2-.2.2-.2 1.4-5.7.4-2.2.9-4.5 1.1-5 .1-.6.5-2.6.8-4.5.4-1.9.9-4.2 1.1-5 .2-.8.7-3.9 1-6.9.4-3 .9-6.3 1.1-7.5.2-1.2.7-6.4 1.1-11.6.9-12.8.8-1620.3-.1-1630.5-.4-4.4-.9-9.1-1.1-10.5-.2-1.4-.7-5-1.1-8-.4-3-.8-5.7-.9-6-.1-.3-.5-2.5-.9-5-2.3-13.1-8.5-34.4-14.6-49.5-3.7-9.5-14.5-31.3-18.6-37.6-1.6-2.4-3.5-5.5-4.2-6.9-.7-1.4-4.1-6.3-7.4-11-16.4-22.8-37.4-44.3-58.3-59.9-9.8-7.3-23-16.1-24.1-16.1-.4 0-1.5-.6-2.3-1.4-2.6-2.4-26.8-14.2-38.1-18.6-8.7-3.4-22.6-7.9-29-9.5-11.4-2.8-19.2-4.4-23.7-5-1.2-.2-3.4-.6-5-.9-1.5-.3-5-.8-7.8-1-2.7-.3-7.5-.9-10.5-1.2-4.4-.6-1971.7-1.3-1972.3-.8zm1333 968.1c-.9 5.4-3 12.8-4.5 15.8-1.9 4-7 9.3-10.7 11.2l-3 1.6 3.7-4.1c5.3-5.9 8.1-10.6 11.4-19.5 3-8.2 3.8-9.4 3.1-5zm-19.2 29.3c-.3.5-1.2 1-1.8 1-.7 0-.6-.4.3-1 1.9-1.2 2.3-1.2 1.5 0zm-600.8 68.2c-.3.8-.6.5-.6-.6-.1-1.1.2-1.7.5-1.3.3.3.4 1.2.1 1.9zm1.7 3.4c.3.8.2 1.2-.4.9-.6-.3-1-1-1-1.6 0-1.4.7-1.1 1.4.7zm1.6 4.4c.6 1.1.8 2 .6 2-.3 0-1-.9-1.6-2-.6-1.1-.8-2-.6-2 .3 0 1 .9 1.6 2zm3 7.4c0 1.2-.5.7-1.9-2.4-1.1-2.4-1.1-2.4.3-.6.9 1.1 1.6 2.4 1.6 3zm4.3 7.9c10.1 18 23.6 29 38.5 31.3 5.2.8 5.3 1.4.3 1.4-14.1 0-29.3-12.5-39.9-32.8-4.3-8.1-3.4-8 1.1.1z"/></svg>